<?xml version="1.0" encoding="UTF-8" standalone="no"?><!DOCTYPE svg PUBLIC "-//W3C//DTD SVG 1.1//EN" "http://www.w3.org/Graphics/SVG/1.1/DTD/svg11.dtd"><svg width="100%" height="100%" viewBox="0 0 1334 1334" version="1.1" xmlns="http://www.w3.org/2000/svg" xmlns:xlink="http://www.w3.org/1999/xlink" xml:space="preserve" xmlns:serif="http://www.serif.com/" style="fill-rule:evenodd;clip-rule:evenodd;stroke-linecap:round;stroke-linejoin:round;stroke-miterlimit:1.5;"><rect id="Depositing-rime-fog" serif:id="Depositing rime fog" x="0" y="0" width="1333.33" height="1333.33" style="fill:none;"/><g><path d="M611.111,250l379.553,-0" style="fill:none;stroke:#fff;stroke-width:83.33px;"/><path d="M351.775,416.667l388.889,-0" style="fill:none;stroke:#fff;stroke-width:83.33px;"/><g><path d="M223.11,363.675l-0,105.983" style="fill:none;stroke:#fff;stroke-width:36.84px;"/><path d="M269.002,390.171l-91.784,52.991" style="fill:none;stroke:#fff;stroke-width:36.84px;"/><path d="M269.002,443.162l-91.784,-52.991" style="fill:none;stroke:#fff;stroke-width:36.84px;"/></g><path d="M611.111,583.333l379.553,0" style="fill:none;stroke:#fff;stroke-width:83.33px;"/><path d="M444.444,750l296.22,-0" style="fill:none;stroke:#fff;stroke-width:83.33px;"/><path d="M616.667,916.667l290.664,-0" style="fill:none;stroke:#fff;stroke-width:83.33px;"/><path d="M166.667,250l296.219,-0" style="fill:none;stroke:#fff;stroke-width:83.33px;"/><path d="M166.667,583.333l296.219,0" style="fill:none;stroke:#fff;stroke-width:83.33px;"/><path d="M166.667,916.667l185.108,-0" style="fill:none;stroke:#fff;stroke-width:83.33px;"/><g><path d="M486.556,863.675l0,105.983" style="fill:none;stroke:#fff;stroke-width:36.84px;"/><path d="M532.448,890.171l-91.784,52.991" style="fill:none;stroke:#fff;stroke-width:36.84px;"/><path d="M532.448,943.162l-91.784,-52.991" style="fill:none;stroke:#fff;stroke-width:36.84px;"/></g><g><path d="M870.775,1030.34l-0,105.983" style="fill:none;stroke:#fff;stroke-width:36.84px;"/><path d="M916.667,1056.84l-91.784,52.991" style="fill:none;stroke:#fff;stroke-width:36.84px;"/><path d="M916.667,1109.83l-91.784,-52.991" style="fill:none;stroke:#fff;stroke-width:36.84px;"/></g><g><path d="M1120.33,197.009l0,105.982" style="fill:none;stroke:#fff;stroke-width:36.84px;"/><path d="M1166.22,223.504l-91.784,52.992" style="fill:none;stroke:#fff;stroke-width:36.84px;"/><path d="M1166.22,276.496l-91.784,-52.992" style="fill:none;stroke:#fff;stroke-width:36.84px;"/></g><g><path d="M1120.33,530.342l0,105.983" style="fill:none;stroke:#fff;stroke-width:36.84px;"/><path d="M1166.22,556.838l-91.784,52.991" style="fill:none;stroke:#fff;stroke-width:36.84px;"/><path d="M1166.22,609.829l-91.784,-52.991" style="fill:none;stroke:#fff;stroke-width:36.84px;"/></g><path d="M1055.56,916.667l129.553,-0" style="fill:none;stroke:#fff;stroke-width:83.33px;"/><path d="M444.444,1083.33l296.22,0" style="fill:none;stroke:#fff;stroke-width:83.33px;"/><path d="M150,750l146.22,-0" style="fill:none;stroke:#fff;stroke-width:83.33px;"/><path d="M150,1083.33l146.22,0" style="fill:none;stroke:#fff;stroke-width:83.33px;"/><path d="M888.889,416.667l296.22,-0" style="fill:none;stroke:#fff;stroke-width:83.33px;"/><path d="M888.889,750l296.22,-0" style="fill:none;stroke:#fff;stroke-width:83.33px;"/><path d="M1000.89,1083.33l184.221,0" style="fill:none;stroke:#fff;stroke-width:83.33px;"/></g></svg>