<?xml version="1.0" encoding="UTF-8" standalone="no"?><!DOCTYPE svg PUBLIC "-//W3C//DTD SVG 1.1//EN" "http://www.w3.org/Graphics/SVG/1.1/DTD/svg11.dtd"><svg width="100%" height="100%" viewBox="0 0 1334 1334" version="1.1" xmlns="http://www.w3.org/2000/svg" xmlns:xlink="http://www.w3.org/1999/xlink" xml:space="preserve" xmlns:serif="http://www.serif.com/" style="fill-rule:evenodd;clip-rule:evenodd;stroke-linecap:round;stroke-linejoin:round;stroke-miterlimit:1.5;"><rect id="Fog" x="0" y="0" width="1333.33" height="1333.33" style="fill:none;"/><g><path d="M611.111,250l296.22,-0" style="fill:none;stroke:#fff;stroke-width:83.33px;"/><path d="M444.444,416.667l296.22,-0" style="fill:none;stroke:#fff;stroke-width:83.33px;"/><path d="M611.111,583.333l296.22,0" style="fill:none;stroke:#fff;stroke-width:83.33px;"/><path d="M444.444,750l296.22,-0" style="fill:none;stroke:#fff;stroke-width:83.33px;"/><path d="M611.111,916.667l296.22,-0" style="fill:none;stroke:#fff;stroke-width:83.33px;"/><path d="M166.667,250l296.219,-0" style="fill:none;stroke:#fff;stroke-width:83.33px;"/><path d="M166.667,583.333l296.219,0" style="fill:none;stroke:#fff;stroke-width:83.33px;"/><path d="M166.667,916.667l296.219,-0" style="fill:none;stroke:#fff;stroke-width:83.33px;"/><path d="M1055.56,250l129.553,-0" style="fill:none;stroke:#fff;stroke-width:83.33px;"/><path d="M1055.56,583.333l129.553,0" style="fill:none;stroke:#fff;stroke-width:83.33px;"/><path d="M1055.56,916.667l129.553,-0" style="fill:none;stroke:#fff;stroke-width:83.33px;"/><path d="M444.444,1083.33l296.22,0" style="fill:none;stroke:#fff;stroke-width:83.33px;"/><path d="M150,416.667l146.22,-0" style="fill:none;stroke:#fff;stroke-width:83.33px;"/><path d="M150,750l146.22,-0" style="fill:none;stroke:#fff;stroke-width:83.33px;"/><path d="M150,1083.33l146.22,0" style="fill:none;stroke:#fff;stroke-width:83.33px;"/><path d="M888.889,416.667l296.22,-0" style="fill:none;stroke:#fff;stroke-width:83.33px;"/><path d="M888.889,750l296.22,-0" style="fill:none;stroke:#fff;stroke-width:83.33px;"/><path d="M888.889,1083.33l296.22,0" style="fill:none;stroke:#fff;stroke-width:83.33px;"/></g></svg>