<?xml version="1.0" encoding="UTF-8" standalone="no"?><!DOCTYPE svg PUBLIC "-//W3C//DTD SVG 1.1//EN" "http://www.w3.org/Graphics/SVG/1.1/DTD/svg11.dtd"><svg width="100%" height="100%" viewBox="0 0 1000 1000" version="1.1" xmlns="http://www.w3.org/2000/svg" xmlns:xlink="http://www.w3.org/1999/xlink" xml:space="preserve" xmlns:serif="http://www.serif.com/" style="fill-rule:evenodd;clip-rule:evenodd;stroke-linecap:round;stroke-linejoin:round;stroke-miterlimit:1.5;"><rect id="ok-Heavy-rain" serif:id="ok Heavy rain" x="0" y="0" width="1000" height="1000" style="fill:none;"/><path d="M316.88,597.529c-70.743,-0 -128.177,-57.434 -128.177,-128.177c0,-62.337 44.597,-114.34 103.598,-125.818c12.441,-77.727 79.87,-137.194 161.079,-137.194c64.031,-0 119.496,36.97 146.194,90.711c13.321,-3.787 27.381,-5.815 41.91,-5.815c84.523,0 153.146,68.623 153.146,153.146c0,84.524 -68.623,153.147 -153.146,153.147l-324.604,-0Z" style="fill:none;stroke:#fff;stroke-width:62.5px;"/><path d="M273.617,885.327l49.771,-101.48" style="fill:none;stroke:#fff;stroke-width:41.67px;"/><path d="M365.99,696.986l49.771,-101.48" style="fill:none;stroke:#fff;stroke-width:41.67px;"/><path d="M438.703,803.594l49.772,-101.48" style="fill:none;stroke:#fff;stroke-width:41.67px;"/><path d="M688.703,803.594l49.772,-101.48" style="fill:none;stroke:#fff;stroke-width:41.67px;"/><path d="M188.703,803.594l49.772,-101.48" style="fill:none;stroke:#fff;stroke-width:41.67px;"/><path d="M523.617,885.327l49.771,-101.48" style="fill:none;stroke:#fff;stroke-width:41.67px;"/><path d="M615.99,696.986l49.771,-101.48" style="fill:none;stroke:#fff;stroke-width:41.67px;"/></svg>