<?xml version="1.0" encoding="UTF-8" standalone="no"?><!DOCTYPE svg PUBLIC "-//W3C//DTD SVG 1.1//EN" "http://www.w3.org/Graphics/SVG/1.1/DTD/svg11.dtd"><svg width="100%" height="100%" viewBox="0 0 1334 1334" version="1.1" xmlns="http://www.w3.org/2000/svg" xmlns:xlink="http://www.w3.org/1999/xlink" xml:space="preserve" xmlns:serif="http://www.serif.com/" style="fill-rule:evenodd;clip-rule:evenodd;stroke-linecap:round;stroke-linejoin:round;stroke-miterlimit:1.5;"><rect id="ok-Heavy-rain-showers" serif:id="ok Heavy rain showers" x="0" y="0" width="1333.33" height="1333.33" style="fill:none;"/><path d="M428.635,864.77c-74.327,-0 -134.67,-60.344 -134.67,-134.67c-0,-65.494 46.855,-120.132 108.845,-132.191c13.071,-81.664 83.916,-144.144 169.239,-144.144c67.275,0 125.549,38.843 153.599,95.307c13.996,-3.98 28.768,-6.11 44.033,-6.11c88.805,-0 160.904,72.099 160.904,160.904c0,88.805 -72.099,160.904 -160.904,160.904l-341.046,-0Z" style="fill:none;stroke:#fff;stroke-width:83.33px;"/><g><path d="M590.937,373.594l-76.707,-76.707" style="fill:none;stroke:#fff;stroke-width:83.33px;"/><path d="M930.013,513.475l109.355,-0" style="fill:none;stroke:#fff;stroke-width:83.33px;"/><path d="M871.328,373.594l76.707,-76.707" style="fill:none;stroke:#fff;stroke-width:83.33px;"/><path d="M731.447,314.909l0,-109.355" style="fill:none;stroke:#fff;stroke-width:83.33px;"/><path d="M660.864,440.444c18.282,-17.674 43.172,-28.554 70.583,-28.554c56.067,-0 101.585,45.518 101.585,101.585" style="fill:none;stroke:#fff;stroke-width:83.33px;"/></g><g><path d="M314.498,959.845l0,105.983" style="fill:none;stroke:#fff;stroke-width:36.84px;"/><path d="M360.39,986.341l-91.783,52.991" style="fill:none;stroke:#fff;stroke-width:36.84px;"/><path d="M360.39,1039.33l-91.783,-52.991" style="fill:none;stroke:#fff;stroke-width:36.84px;"/></g><g><path d="M498.814,959.845l-0,105.983" style="fill:none;stroke:#fff;stroke-width:36.84px;"/><path d="M544.706,986.341l-91.784,52.991" style="fill:none;stroke:#fff;stroke-width:36.84px;"/><path d="M544.706,1039.33l-91.784,-52.991" style="fill:none;stroke:#fff;stroke-width:36.84px;"/></g><g><path d="M678.583,959.845l-0,105.983" style="fill:none;stroke:#fff;stroke-width:36.84px;"/><path d="M724.475,986.341l-91.784,52.991" style="fill:none;stroke:#fff;stroke-width:36.84px;"/><path d="M724.475,1039.33l-91.784,-52.991" style="fill:none;stroke:#fff;stroke-width:36.84px;"/></g><g><path d="M860.625,959.845l0,105.983" style="fill:none;stroke:#fff;stroke-width:36.84px;"/><path d="M906.517,986.341l-91.784,52.991" style="fill:none;stroke:#fff;stroke-width:36.84px;"/><path d="M906.517,1039.33l-91.784,-52.991" style="fill:none;stroke:#fff;stroke-width:36.84px;"/></g><g><path d="M364.498,1112.53l0,105.982" style="fill:none;stroke:#fff;stroke-width:36.84px;"/><path d="M410.39,1139.02l-91.783,52.992" style="fill:none;stroke:#fff;stroke-width:36.84px;"/><path d="M410.39,1192.01l-91.783,-52.992" style="fill:none;stroke:#fff;stroke-width:36.84px;"/></g><g><path d="M548.814,1112.53l-0,105.982" style="fill:none;stroke:#fff;stroke-width:36.84px;"/><path d="M594.706,1139.02l-91.784,52.992" style="fill:none;stroke:#fff;stroke-width:36.84px;"/><path d="M594.706,1192.01l-91.784,-52.992" style="fill:none;stroke:#fff;stroke-width:36.84px;"/></g><g><path d="M728.583,1112.53l-0,105.982" style="fill:none;stroke:#fff;stroke-width:36.84px;"/><path d="M774.475,1139.02l-91.784,52.992" style="fill:none;stroke:#fff;stroke-width:36.84px;"/><path d="M774.475,1192.01l-91.784,-52.992" style="fill:none;stroke:#fff;stroke-width:36.84px;"/></g><g><path d="M910.625,1112.53l0,105.982" style="fill:none;stroke:#fff;stroke-width:36.84px;"/><path d="M956.517,1139.02l-91.784,52.992" style="fill:none;stroke:#fff;stroke-width:36.84px;"/><path d="M956.517,1192.01l-91.784,-52.992" style="fill:none;stroke:#fff;stroke-width:36.84px;"/></g></svg>