<?xml version="1.0" encoding="UTF-8" standalone="no"?><!DOCTYPE svg PUBLIC "-//W3C//DTD SVG 1.1//EN" "http://www.w3.org/Graphics/SVG/1.1/DTD/svg11.dtd"><svg width="100%" height="100%" viewBox="0 0 1334 1334" version="1.1" xmlns="http://www.w3.org/2000/svg" xmlns:xlink="http://www.w3.org/1999/xlink" xml:space="preserve" xmlns:serif="http://www.serif.com/" style="fill-rule:evenodd;clip-rule:evenodd;stroke-linecap:round;stroke-linejoin:round;stroke-miterlimit:1.5;"><rect id="_67:-Heavy-freezing-rain" serif:id="67: Heavy freezing rain" x="-0" y="0" width="1333.33" height="1333.33" style="fill:none;"/><path d="M374.316,857.392c-117.763,-0 -213.371,-95.609 -213.371,-213.372c-0,-103.77 74.238,-190.338 172.455,-209.445c20.71,-129.389 132.957,-228.382 268.143,-228.382c106.591,-0 198.921,61.543 243.364,151.004c22.176,-6.305 45.58,-9.68 69.766,-9.68c140.704,-0 254.938,114.233 254.938,254.937c-0,140.704 -114.234,254.938 -254.938,254.938l-540.357,-0Z" style="fill:none;stroke:#fff;stroke-width:83.33px;"/><g><path d="M590.336,405.815l0,105.983" style="fill:none;stroke:#fff;stroke-width:36.84px;"/><path d="M636.228,432.311l-91.784,52.991" style="fill:none;stroke:#fff;stroke-width:36.84px;"/><path d="M636.228,485.302l-91.784,-52.991" style="fill:none;stroke:#fff;stroke-width:36.84px;"/></g><g><path d="M437.441,621.795l0,105.983" style="fill:none;stroke:#fff;stroke-width:36.84px;"/><path d="M483.333,648.291l-91.783,52.991" style="fill:none;stroke:#fff;stroke-width:36.84px;"/><path d="M483.333,701.282l-91.783,-52.991" style="fill:none;stroke:#fff;stroke-width:36.84px;"/></g><g><path d="M865.219,560.684l0,105.983" style="fill:none;stroke:#fff;stroke-width:36.84px;"/><path d="M911.111,587.18l-91.784,52.991" style="fill:none;stroke:#fff;stroke-width:36.84px;"/><path d="M911.111,640.171l-91.784,-52.991" style="fill:none;stroke:#fff;stroke-width:36.84px;"/></g><path d="M348.033,1045.42l44.042,-76.284" style="fill:none;stroke:#fff;stroke-width:83.33px;"/><path d="M530.075,1045.42l44.042,-76.284" style="fill:none;stroke:#fff;stroke-width:83.33px;"/><path d="M712.117,1045.42l44.043,-76.284" style="fill:none;stroke:#fff;stroke-width:83.33px;"/><path d="M894.159,1045.42l44.043,-76.284" style="fill:none;stroke:#fff;stroke-width:83.33px;"/><path d="M395.011,1198.1l44.043,-76.284" style="fill:none;stroke:#fff;stroke-width:83.33px;"/><path d="M577.054,1198.1l44.042,-76.284" style="fill:none;stroke:#fff;stroke-width:83.33px;"/><path d="M759.096,1198.1l44.042,-76.284" style="fill:none;stroke:#fff;stroke-width:83.33px;"/><path d="M941.138,1198.1l44.042,-76.284" style="fill:none;stroke:#fff;stroke-width:83.33px;"/></svg>