<?xml version="1.0" encoding="UTF-8" standalone="no"?><!DOCTYPE svg PUBLIC "-//W3C//DTD SVG 1.1//EN" "http://www.w3.org/Graphics/SVG/1.1/DTD/svg11.dtd"><svg width="100%" height="100%" viewBox="0 0 1334 1334" version="1.1" xmlns="http://www.w3.org/2000/svg" xmlns:xlink="http://www.w3.org/1999/xlink" xml:space="preserve" xmlns:serif="http://www.serif.com/" style="fill-rule:evenodd;clip-rule:evenodd;stroke-linecap:round;stroke-linejoin:round;stroke-miterlimit:1.5;"><rect id="ok-Heavy-rain" serif:id="ok Heavy rain" x="-0" y="0" width="1333.33" height="1333.33" style="fill:none;"/><g><path d="M538.889,487.647l-0,169.15" style="fill:none;stroke:#fff;stroke-width:55.56px;"/><path d="M612.133,529.935l-146.488,84.575" style="fill:none;stroke:#fff;stroke-width:55.56px;"/><path d="M612.133,614.51l-146.488,-84.575" style="fill:none;stroke:#fff;stroke-width:55.56px;"/></g><g><path d="M1055.56,487.647l-0,169.15" style="fill:none;stroke:#fff;stroke-width:55.56px;"/><path d="M1128.8,529.935l-146.489,84.575" style="fill:none;stroke:#fff;stroke-width:55.56px;"/><path d="M1128.8,614.51l-146.489,-84.575" style="fill:none;stroke:#fff;stroke-width:55.56px;"/></g><g><path d="M1055.56,248.758l-0,169.15" style="fill:none;stroke:#fff;stroke-width:55.56px;"/><path d="M1128.8,291.046l-146.489,84.575" style="fill:none;stroke:#fff;stroke-width:55.56px;"/><path d="M1128.8,375.621l-146.489,-84.575" style="fill:none;stroke:#fff;stroke-width:55.56px;"/></g><g><path d="M538.889,248.758l-0,169.15" style="fill:none;stroke:#fff;stroke-width:55.56px;"/><path d="M612.133,291.046l-146.488,84.575" style="fill:none;stroke:#fff;stroke-width:55.56px;"/><path d="M612.133,375.621l-146.488,-84.575" style="fill:none;stroke:#fff;stroke-width:55.56px;"/></g><g><path d="M277.778,248.758l-0,169.15" style="fill:none;stroke:#fff;stroke-width:55.56px;"/><path d="M351.022,291.046l-146.488,84.575" style="fill:none;stroke:#fff;stroke-width:55.56px;"/><path d="M351.022,375.621l-146.488,-84.575" style="fill:none;stroke:#fff;stroke-width:55.56px;"/></g><g><path d="M277.778,487.647l-0,169.15" style="fill:none;stroke:#fff;stroke-width:55.56px;"/><path d="M351.022,529.935l-146.488,84.575" style="fill:none;stroke:#fff;stroke-width:55.56px;"/><path d="M351.022,614.51l-146.488,-84.575" style="fill:none;stroke:#fff;stroke-width:55.56px;"/></g><g><path d="M277.778,965.425l-0,169.15" style="fill:none;stroke:#fff;stroke-width:55.56px;"/><path d="M351.022,1007.71l-146.488,84.574" style="fill:none;stroke:#fff;stroke-width:55.56px;"/><path d="M351.022,1092.29l-146.488,-84.574" style="fill:none;stroke:#fff;stroke-width:55.56px;"/></g><g><path d="M538.889,965.425l-0,169.15" style="fill:none;stroke:#fff;stroke-width:55.56px;"/><path d="M612.133,1007.71l-146.488,84.574" style="fill:none;stroke:#fff;stroke-width:55.56px;"/><path d="M612.133,1092.29l-146.488,-84.574" style="fill:none;stroke:#fff;stroke-width:55.56px;"/></g><g><path d="M788.889,487.647l-0,169.15" style="fill:none;stroke:#fff;stroke-width:55.56px;"/><path d="M862.133,529.935l-146.488,84.575" style="fill:none;stroke:#fff;stroke-width:55.56px;"/><path d="M862.133,614.51l-146.488,-84.575" style="fill:none;stroke:#fff;stroke-width:55.56px;"/></g><g><path d="M788.889,248.758l-0,169.15" style="fill:none;stroke:#fff;stroke-width:55.56px;"/><path d="M862.133,291.046l-146.488,84.575" style="fill:none;stroke:#fff;stroke-width:55.56px;"/><path d="M862.133,375.621l-146.488,-84.575" style="fill:none;stroke:#fff;stroke-width:55.56px;"/></g><g><path d="M788.889,965.425l-0,169.15" style="fill:none;stroke:#fff;stroke-width:55.56px;"/><path d="M862.133,1007.71l-146.488,84.574" style="fill:none;stroke:#fff;stroke-width:55.56px;"/><path d="M862.133,1092.29l-146.488,-84.574" style="fill:none;stroke:#fff;stroke-width:55.56px;"/></g><g><path d="M1055.56,965.425l-0,169.15" style="fill:none;stroke:#fff;stroke-width:55.56px;"/><path d="M1128.8,1007.71l-146.489,84.574" style="fill:none;stroke:#fff;stroke-width:55.56px;"/><path d="M1128.8,1092.29l-146.489,-84.574" style="fill:none;stroke:#fff;stroke-width:55.56px;"/></g><g><path d="M277.778,726.536l-0,169.15" style="fill:none;stroke:#fff;stroke-width:55.56px;"/><path d="M351.022,768.824l-146.488,84.575" style="fill:none;stroke:#fff;stroke-width:55.56px;"/><path d="M351.022,853.399l-146.488,-84.575" style="fill:none;stroke:#fff;stroke-width:55.56px;"/></g><g><path d="M538.889,726.536l-0,169.15" style="fill:none;stroke:#fff;stroke-width:55.56px;"/><path d="M612.133,768.824l-146.488,84.575" style="fill:none;stroke:#fff;stroke-width:55.56px;"/><path d="M612.133,853.399l-146.488,-84.575" style="fill:none;stroke:#fff;stroke-width:55.56px;"/></g><g><path d="M788.889,726.536l-0,169.15" style="fill:none;stroke:#fff;stroke-width:55.56px;"/><path d="M862.133,768.824l-146.488,84.575" style="fill:none;stroke:#fff;stroke-width:55.56px;"/><path d="M862.133,853.399l-146.488,-84.575" style="fill:none;stroke:#fff;stroke-width:55.56px;"/></g><g><path d="M1055.56,726.536l-0,169.15" style="fill:none;stroke:#fff;stroke-width:55.56px;"/><path d="M1128.8,768.824l-146.489,84.575" style="fill:none;stroke:#fff;stroke-width:55.56px;"/><path d="M1128.8,853.399l-146.489,-84.575" style="fill:none;stroke:#fff;stroke-width:55.56px;"/></g></svg>