<?xml version="1.0" encoding="UTF-8" standalone="no"?><!DOCTYPE svg PUBLIC "-//W3C//DTD SVG 1.1//EN" "http://www.w3.org/Graphics/SVG/1.1/DTD/svg11.dtd"><svg width="100%" height="100%" viewBox="0 0 1000 1000" version="1.1" xmlns="http://www.w3.org/2000/svg" xmlns:xlink="http://www.w3.org/1999/xlink" xml:space="preserve" xmlns:serif="http://www.serif.com/" style="fill-rule:evenodd;clip-rule:evenodd;stroke-linecap:round;stroke-linejoin:round;stroke-miterlimit:1.5;"><rect id="ok-Slight-rain" serif:id="ok Slight rain" x="0" y="0" width="1000" height="1000" style="fill:none;"/><path d="M316.88,626.695c-70.743,0 -128.177,-57.434 -128.177,-128.176c0,-62.337 44.597,-114.341 103.598,-125.819c12.441,-77.726 79.87,-137.194 161.079,-137.194c64.031,0 119.496,36.971 146.194,90.712c13.321,-3.788 27.381,-5.815 41.91,-5.815c84.523,-0 153.146,68.622 153.146,153.146c0,84.524 -68.623,153.146 -153.146,153.146l-324.604,0Z" style="fill:none;stroke:#fff;stroke-width:62.5px;"/><path d="M468.919,764.494l22.748,-62.5" style="fill:none;stroke:#fff;stroke-width:41.67px;"/><path d="M593.919,764.494l22.748,-62.5" style="fill:none;stroke:#fff;stroke-width:41.67px;"/><path d="M343.919,764.494l22.748,-62.5" style="fill:none;stroke:#fff;stroke-width:41.67px;"/></svg>