<?xml version="1.0" encoding="UTF-8" standalone="no"?><!DOCTYPE svg PUBLIC "-//W3C//DTD SVG 1.1//EN" "http://www.w3.org/Graphics/SVG/1.1/DTD/svg11.dtd"><svg width="100%" height="100%" viewBox="0 0 1334 1334" version="1.1" xmlns="http://www.w3.org/2000/svg" xmlns:xlink="http://www.w3.org/1999/xlink" xml:space="preserve" xmlns:serif="http://www.serif.com/" style="fill-rule:evenodd;clip-rule:evenodd;stroke-linecap:round;stroke-linejoin:round;stroke-miterlimit:1.5;"><rect id="_56:-Light-freezing-drizzle" serif:id="56: Light freezing drizzle" x="0" y="0" width="1333.33" height="1333.33" style="fill:none;"/><path d="M363.356,884.55c-122.761,0 -222.428,-99.666 -222.428,-222.428c-0,-108.175 77.389,-198.417 179.775,-218.335c21.589,-134.88 138.6,-238.075 279.524,-238.075c111.115,-0 207.364,64.155 253.693,157.413c23.117,-6.572 47.515,-10.091 72.727,-10.091c146.676,0 265.758,119.082 265.758,265.758c0,146.676 -119.082,265.758 -265.758,265.758l-563.291,0Z" style="fill:none;stroke:#fff;stroke-width:83.33px;"/><g><path d="M590.336,405.815l0,105.983" style="fill:none;stroke:#fff;stroke-width:36.84px;"/><path d="M636.228,432.311l-91.784,52.991" style="fill:none;stroke:#fff;stroke-width:36.84px;"/><path d="M636.228,485.302l-91.784,-52.991" style="fill:none;stroke:#fff;stroke-width:36.84px;"/></g><g><path d="M437.441,621.795l0,105.983" style="fill:none;stroke:#fff;stroke-width:36.84px;"/><path d="M483.333,648.291l-91.783,52.991" style="fill:none;stroke:#fff;stroke-width:36.84px;"/><path d="M483.333,701.282l-91.783,-52.991" style="fill:none;stroke:#fff;stroke-width:36.84px;"/></g><g><path d="M865.219,560.684l0,105.983" style="fill:none;stroke:#fff;stroke-width:36.84px;"/><path d="M911.111,587.18l-91.784,52.991" style="fill:none;stroke:#fff;stroke-width:36.84px;"/><path d="M911.111,640.171l-91.784,-52.991" style="fill:none;stroke:#fff;stroke-width:36.84px;"/></g><path d="M325.389,1144.29l16.602,-28.756" style="fill:none;stroke:#fff;stroke-width:83.33px;"/><path d="M643.711,1144.29l16.602,-28.756" style="fill:none;stroke:#fff;stroke-width:83.33px;"/><path d="M962.032,1144.29l16.603,-28.756" style="fill:none;stroke:#fff;stroke-width:83.33px;"/></svg>