<?xml version="1.0" encoding="UTF-8" standalone="no"?><!DOCTYPE svg PUBLIC "-//W3C//DTD SVG 1.1//EN" "http://www.w3.org/Graphics/SVG/1.1/DTD/svg11.dtd"><svg width="100%" height="100%" viewBox="0 0 1334 1334" version="1.1" xmlns="http://www.w3.org/2000/svg" xmlns:xlink="http://www.w3.org/1999/xlink" xml:space="preserve" xmlns:serif="http://www.serif.com/" style="fill-rule:evenodd;clip-rule:evenodd;stroke-linecap:round;stroke-linejoin:round;stroke-miterlimit:1.5;"><rect id="_1:-Mainly-clear" serif:id="1: Mainly clear" x="0" y="0" width="1333.33" height="1333.33" style="fill:none;"/><g><path d="M290.757,1127.78c-84.786,-0 -153.621,-68.836 -153.621,-153.622c-0,-74.711 53.449,-137.038 124.163,-150.794c14.91,-93.156 95.725,-164.429 193.055,-164.429c76.742,0 143.217,44.31 175.215,108.719c15.966,-4.539 32.816,-6.97 50.229,-6.97c101.303,0 183.548,82.245 183.548,183.548c0,101.303 -82.245,183.548 -183.548,183.548l-389.041,-0Z" style="fill:none;stroke:#fff;stroke-width:83.33px;"/><g><path d="M519.188,459.217l-115.808,-115.808" style="fill:none;stroke:#fff;stroke-width:83.33px;"/><path d="M1031.1,670.398l165.097,0" style="fill:none;stroke:#fff;stroke-width:83.33px;"/><path d="M943.295,882.374l116.298,116.298" style="fill:none;stroke:#fff;stroke-width:83.33px;"/><path d="M942.502,459.217l115.807,-115.808" style="fill:none;stroke:#fff;stroke-width:83.33px;"/><path d="M731.32,370.618l0,-165.097" style="fill:none;stroke:#fff;stroke-width:83.33px;"/><path d="M579.23,690.258c-0.842,-6.502 -1.276,-13.13 -1.276,-19.86c-0,-84.645 68.721,-153.366 153.366,-153.366c84.645,0 153.366,68.721 153.366,153.366c0,51.779 -25.715,97.6 -65.06,125.376" style="fill:none;stroke:#fff;stroke-width:83.33px;"/></g></g></svg>