<?xml version="1.0" encoding="UTF-8" standalone="no"?><!DOCTYPE svg PUBLIC "-//W3C//DTD SVG 1.1//EN" "http://www.w3.org/Graphics/SVG/1.1/DTD/svg11.dtd"><svg width="100%" height="100%" viewBox="0 0 1334 1334" version="1.1" xmlns="http://www.w3.org/2000/svg" xmlns:xlink="http://www.w3.org/1999/xlink" xml:space="preserve" xmlns:serif="http://www.serif.com/" style="fill-rule:evenodd;clip-rule:evenodd;stroke-linecap:round;stroke-linejoin:round;stroke-miterlimit:1.5;"><rect id="_63:-Moderate-rain" serif:id="63: Moderate rain" x="0" y="0" width="1333.33" height="1333.33" style="fill:none;"/><path d="M361.166,885.126c-123.086,-0 -223.016,-99.93 -223.016,-223.016c0,-108.46 77.594,-198.941 180.25,-218.912c21.646,-135.236 138.967,-238.704 280.263,-238.704c111.408,-0 207.911,64.325 254.363,157.829c23.178,-6.59 47.64,-10.117 72.919,-10.117c147.064,-0 266.46,119.396 266.46,266.46c0,147.063 -119.396,266.46 -266.46,266.46l-564.779,-0Z" style="fill:none;stroke:#fff;stroke-width:83.33px;"/><path d="M358.245,1139.95l46.033,-79.731" style="fill:none;stroke:#fff;stroke-width:83.33px;"/><path d="M548.515,1139.95l46.033,-79.731" style="fill:none;stroke:#fff;stroke-width:83.33px;"/><path d="M738.785,1139.95l46.033,-79.731" style="fill:none;stroke:#fff;stroke-width:83.33px;"/><path d="M929.055,1139.95l46.033,-79.731" style="fill:none;stroke:#fff;stroke-width:83.33px;"/></svg>