<?xml version="1.0" encoding="UTF-8" standalone="no"?><!DOCTYPE svg PUBLIC "-//W3C//DTD SVG 1.1//EN" "http://www.w3.org/Graphics/SVG/1.1/DTD/svg11.dtd"><svg width="100%" height="100%" viewBox="0 0 1334 1334" version="1.1" xmlns="http://www.w3.org/2000/svg" xmlns:xlink="http://www.w3.org/1999/xlink" xml:space="preserve" xmlns:serif="http://www.serif.com/" style="fill-rule:evenodd;clip-rule:evenodd;stroke-linecap:round;stroke-linejoin:round;stroke-miterlimit:1.5;"><rect id="ok-Moderate-rain" serif:id="ok Moderate rain" x="-0" y="0" width="1333.33" height="1333.33" style="fill:none;"/><g><path d="M538.889,582.092l-0,169.15" style="fill:none;stroke:#fff;stroke-width:55.56px;"/><path d="M612.133,624.379l-146.488,84.575" style="fill:none;stroke:#fff;stroke-width:55.56px;"/><path d="M612.133,708.954l-146.488,-84.575" style="fill:none;stroke:#fff;stroke-width:55.56px;"/></g><g><path d="M1055.56,582.092l-0,169.15" style="fill:none;stroke:#fff;stroke-width:55.56px;"/><path d="M1128.8,624.379l-146.489,84.575" style="fill:none;stroke:#fff;stroke-width:55.56px;"/><path d="M1128.8,708.954l-146.489,-84.575" style="fill:none;stroke:#fff;stroke-width:55.56px;"/></g><g><path d="M1055.56,248.758l-0,169.15" style="fill:none;stroke:#fff;stroke-width:55.56px;"/><path d="M1128.8,291.046l-146.489,84.575" style="fill:none;stroke:#fff;stroke-width:55.56px;"/><path d="M1128.8,375.621l-146.489,-84.575" style="fill:none;stroke:#fff;stroke-width:55.56px;"/></g><g><path d="M538.889,248.758l-0,169.15" style="fill:none;stroke:#fff;stroke-width:55.56px;"/><path d="M612.133,291.046l-146.488,84.575" style="fill:none;stroke:#fff;stroke-width:55.56px;"/><path d="M612.133,375.621l-146.488,-84.575" style="fill:none;stroke:#fff;stroke-width:55.56px;"/></g><g><path d="M277.778,248.758l-0,169.15" style="fill:none;stroke:#fff;stroke-width:55.56px;"/><path d="M351.022,291.046l-146.488,84.575" style="fill:none;stroke:#fff;stroke-width:55.56px;"/><path d="M351.022,375.621l-146.488,-84.575" style="fill:none;stroke:#fff;stroke-width:55.56px;"/></g><g><path d="M277.778,582.092l-0,169.15" style="fill:none;stroke:#fff;stroke-width:55.56px;"/><path d="M351.022,624.379l-146.488,84.575" style="fill:none;stroke:#fff;stroke-width:55.56px;"/><path d="M351.022,708.954l-146.488,-84.575" style="fill:none;stroke:#fff;stroke-width:55.56px;"/></g><g><path d="M277.778,915.425l-0,169.15" style="fill:none;stroke:#fff;stroke-width:55.56px;"/><path d="M351.022,957.713l-146.488,84.574" style="fill:none;stroke:#fff;stroke-width:55.56px;"/><path d="M351.022,1042.29l-146.488,-84.574" style="fill:none;stroke:#fff;stroke-width:55.56px;"/></g><g><path d="M538.889,915.425l-0,169.15" style="fill:none;stroke:#fff;stroke-width:55.56px;"/><path d="M612.133,957.713l-146.488,84.574" style="fill:none;stroke:#fff;stroke-width:55.56px;"/><path d="M612.133,1042.29l-146.488,-84.574" style="fill:none;stroke:#fff;stroke-width:55.56px;"/></g><g><path d="M788.889,582.092l-0,169.15" style="fill:none;stroke:#fff;stroke-width:55.56px;"/><path d="M862.133,624.379l-146.488,84.575" style="fill:none;stroke:#fff;stroke-width:55.56px;"/><path d="M862.133,708.954l-146.488,-84.575" style="fill:none;stroke:#fff;stroke-width:55.56px;"/></g><g><path d="M788.889,248.758l-0,169.15" style="fill:none;stroke:#fff;stroke-width:55.56px;"/><path d="M862.133,291.046l-146.488,84.575" style="fill:none;stroke:#fff;stroke-width:55.56px;"/><path d="M862.133,375.621l-146.488,-84.575" style="fill:none;stroke:#fff;stroke-width:55.56px;"/></g><g><path d="M788.889,915.425l-0,169.15" style="fill:none;stroke:#fff;stroke-width:55.56px;"/><path d="M862.133,957.713l-146.488,84.574" style="fill:none;stroke:#fff;stroke-width:55.56px;"/><path d="M862.133,1042.29l-146.488,-84.574" style="fill:none;stroke:#fff;stroke-width:55.56px;"/></g><g><path d="M1055.56,915.425l-0,169.15" style="fill:none;stroke:#fff;stroke-width:55.56px;"/><path d="M1128.8,957.713l-146.489,84.574" style="fill:none;stroke:#fff;stroke-width:55.56px;"/><path d="M1128.8,1042.29l-146.489,-84.574" style="fill:none;stroke:#fff;stroke-width:55.56px;"/></g></svg>