<?xml version="1.0" encoding="UTF-8" standalone="no"?><!DOCTYPE svg PUBLIC "-//W3C//DTD SVG 1.1//EN" "http://www.w3.org/Graphics/SVG/1.1/DTD/svg11.dtd"><svg width="100%" height="100%" viewBox="0 0 1000 1000" version="1.1" xmlns="http://www.w3.org/2000/svg" xmlns:xlink="http://www.w3.org/1999/xlink" xml:space="preserve" xmlns:serif="http://www.serif.com/" style="fill-rule:evenodd;clip-rule:evenodd;stroke-linecap:round;stroke-linejoin:round;stroke-miterlimit:1.5;"><rect id="ok-Moderate-rain" serif:id="ok Moderate rain" x="0" y="0" width="1000" height="1000" style="fill:none;"/><path d="M325.213,627.737c-70.742,0 -128.176,-57.434 -128.176,-128.177c-0,-62.337 44.596,-114.34 103.597,-125.818c12.441,-77.726 79.87,-137.194 161.079,-137.194c64.032,0 119.496,36.971 146.194,90.712c13.322,-3.788 27.381,-5.816 41.91,-5.816c84.524,0 153.146,68.623 153.146,153.147c0,84.524 -68.622,153.146 -153.146,153.146l-324.604,0Z" style="fill:none;stroke:#fff;stroke-width:62.5px;"/><path d="M406.419,763.452l22.748,-62.5" style="fill:none;stroke:#fff;stroke-width:41.67px;"/><path d="M531.419,763.452l22.748,-62.5" style="fill:none;stroke:#fff;stroke-width:41.67px;"/><path d="M656.419,763.452l22.748,-62.5" style="fill:none;stroke:#fff;stroke-width:41.67px;"/><path d="M281.419,763.452l22.748,-62.5" style="fill:none;stroke:#fff;stroke-width:41.67px;"/></svg>