<?xml version="1.0" encoding="UTF-8" standalone="no"?><!DOCTYPE svg PUBLIC "-//W3C//DTD SVG 1.1//EN" "http://www.w3.org/Graphics/SVG/1.1/DTD/svg11.dtd"><svg width="100%" height="100%" viewBox="0 0 1000 1000" version="1.1" xmlns="http://www.w3.org/2000/svg" xmlns:xlink="http://www.w3.org/1999/xlink" xml:space="preserve" xmlns:serif="http://www.serif.com/" style="fill-rule:evenodd;clip-rule:evenodd;stroke-linecap:round;stroke-linejoin:round;stroke-miterlimit:1.5;"><rect id="ok-overcast" serif:id="ok overcast" x="0" y="0" width="1000" height="1000" style="fill:none;"/><path d="M421.36,779.69c-58.73,0 -106.411,-47.681 -106.411,-106.41c-0,-51.752 37.023,-94.924 86.005,-104.453c10.329,-64.528 66.307,-113.897 133.726,-113.897c53.158,0 99.204,30.693 121.368,75.308c11.06,-3.145 22.732,-4.828 34.793,-4.828c70.171,0 127.141,56.97 127.141,127.14c-0,70.171 -56.97,127.14 -127.141,127.14l-269.481,0Z" style="fill:none;stroke:#fff;stroke-width:62.5px;"/><path d="M339.115,605.983l-35.987,0c-69.745,0 -126.369,-56.624 -126.369,-126.369c-0,-61.458 43.967,-112.729 102.137,-124.045c12.265,-76.63 78.744,-135.259 158.808,-135.259c63.128,-0 117.811,36.449 144.132,89.432c13.134,-3.734 26.995,-5.733 41.32,-5.733c83.332,0 150.987,67.655 150.987,150.987c-0,30.902 -9.304,59.649 -25.26,83.588" style="fill:none;stroke:#fff;stroke-width:62.5px;"/></svg>