<?xml version="1.0" encoding="UTF-8" standalone="no"?><!DOCTYPE svg PUBLIC "-//W3C//DTD SVG 1.1//EN" "http://www.w3.org/Graphics/SVG/1.1/DTD/svg11.dtd"><svg width="100%" height="100%" viewBox="0 0 1334 1334" version="1.1" xmlns="http://www.w3.org/2000/svg" xmlns:xlink="http://www.w3.org/1999/xlink" xml:space="preserve" xmlns:serif="http://www.serif.com/" style="fill-rule:evenodd;clip-rule:evenodd;stroke-linecap:round;stroke-linejoin:round;stroke-miterlimit:1.5;"><rect id="_3:-overcast" serif:id="3: overcast" x="-0" y="0" width="1333.33" height="1333.33" style="fill:none;"/><path d="M536.788,1131.67c-97.642,0 -176.915,-79.273 -176.915,-176.915c-0,-86.04 61.553,-157.817 142.989,-173.659c17.172,-107.281 110.241,-189.361 222.329,-189.361c88.378,0 164.932,51.028 201.782,125.204c18.387,-5.228 37.792,-8.026 57.846,-8.026c116.663,-0 211.379,94.715 211.379,211.378c-0,116.664 -94.716,211.379 -211.379,211.379l-448.031,0Z" style="fill:none;stroke:#fff;stroke-width:83.33px;"/><path d="M400.051,842.871l-59.831,0c-115.956,0 -210.097,-94.142 -210.097,-210.098c-0,-102.178 73.099,-187.418 169.809,-206.232c20.392,-127.403 130.917,-224.878 264.029,-224.878c104.955,0 195.869,60.599 239.63,148.688c21.836,-6.209 44.881,-9.532 68.696,-9.532c138.545,-0 251.026,112.481 251.026,251.026c-0,51.377 -15.468,99.169 -41.997,138.971" style="fill:none;stroke:#fff;stroke-width:83.33px;"/></svg>