<?xml version="1.0" encoding="UTF-8" standalone="no"?><!DOCTYPE svg PUBLIC "-//W3C//DTD SVG 1.1//EN" "http://www.w3.org/Graphics/SVG/1.1/DTD/svg11.dtd"><svg width="100%" height="100%" viewBox="0 0 1334 1334" version="1.1" xmlns="http://www.w3.org/2000/svg" xmlns:xlink="http://www.w3.org/1999/xlink" xml:space="preserve" xmlns:serif="http://www.serif.com/" style="fill-rule:evenodd;clip-rule:evenodd;stroke-linecap:round;stroke-linejoin:round;stroke-miterlimit:1.5;"><rect id="_2:-Partly-cloudy" serif:id="2: Partly cloudy" x="-0" y="0" width="1333.33" height="1333.33" style="fill:none;"/><path d="M338.204,1128.9c-108.711,0 -196.97,-88.259 -196.97,-196.97c-0,-95.794 68.531,-175.708 159.199,-193.346c19.118,-119.443 122.737,-210.827 247.532,-210.827c98.397,0 183.63,56.813 224.656,139.397c20.472,-5.82 42.077,-8.936 64.404,-8.936c129.888,-0 235.341,105.453 235.341,235.341c0,129.888 -105.453,235.341 -235.341,235.341l-498.821,0Z" style="fill:none;stroke:#fff;stroke-width:83.33px;"/><g><path d="M540.314,445.778l-112.194,-112.194" style="fill:none;stroke:#fff;stroke-width:83.33px;"/><path d="M1036.25,650.369l159.945,0" style="fill:none;stroke:#fff;stroke-width:83.33px;"/><path d="M950.418,445.778l112.194,-112.194" style="fill:none;stroke:#fff;stroke-width:83.33px;"/><path d="M745.826,359.943l0,-159.945" style="fill:none;stroke:#fff;stroke-width:83.33px;"/><path d="M642.59,543.553c26.739,-25.85 63.144,-41.764 103.236,-41.764c82.004,-0 148.581,66.577 148.581,148.58" style="fill:none;stroke:#fff;stroke-width:83.33px;"/></g></svg>