<?xml version="1.0" encoding="UTF-8" standalone="no"?><!DOCTYPE svg PUBLIC "-//W3C//DTD SVG 1.1//EN" "http://www.w3.org/Graphics/SVG/1.1/DTD/svg11.dtd"><svg width="100%" height="100%" viewBox="0 0 1000 1000" version="1.1" xmlns="http://www.w3.org/2000/svg" xmlns:xlink="http://www.w3.org/1999/xlink" xml:space="preserve" xmlns:serif="http://www.serif.com/" style="fill-rule:evenodd;clip-rule:evenodd;stroke-linecap:round;stroke-linejoin:round;stroke-miterlimit:1.5;"><rect id="ok-Slight-rain-showers" serif:id="ok Slight rain showers" x="0" y="0" width="1000" height="1000" style="fill:none;"/><path d="M303.422,698.577c-61.382,0 -111.217,-49.834 -111.217,-111.216c0,-54.089 38.696,-99.211 89.89,-109.17c10.795,-67.442 69.302,-119.041 139.765,-119.041c55.559,0 103.684,32.079 126.849,78.709c11.559,-3.287 23.758,-5.046 36.365,-5.046c73.34,0 132.882,59.543 132.882,132.882c0,73.34 -59.542,132.882 -132.882,132.882l-281.652,0Z" style="fill:none;stroke:#fff;stroke-width:62.5px;"/><g><path d="M437.459,292.941l-63.349,-63.349" style="fill:none;stroke:#fff;stroke-width:62.5px;"/><path d="M717.484,408.461l90.311,0" style="fill:none;stroke:#fff;stroke-width:62.5px;"/><path d="M669.019,292.941l63.349,-63.349" style="fill:none;stroke:#fff;stroke-width:62.5px;"/><path d="M553.499,244.476l-0,-90.311" style="fill:none;stroke:#fff;stroke-width:62.5px;"/><path d="M495.208,348.149c15.098,-14.596 35.653,-23.582 58.291,-23.582c46.302,0 83.894,37.592 83.894,83.894" style="fill:none;stroke:#fff;stroke-width:62.5px;"/></g><path d="M427.252,834.285l22.748,-62.5" style="fill:none;stroke:#fff;stroke-width:41.67px;"/><path d="M552.252,834.285l22.748,-62.5" style="fill:none;stroke:#fff;stroke-width:41.67px;"/><path d="M302.252,834.285l22.748,-62.5" style="fill:none;stroke:#fff;stroke-width:41.67px;"/></svg>