<?xml version="1.0" encoding="UTF-8" standalone="no"?><!DOCTYPE svg PUBLIC "-//W3C//DTD SVG 1.1//EN" "http://www.w3.org/Graphics/SVG/1.1/DTD/svg11.dtd"><svg width="100%" height="100%" viewBox="0 0 1334 1334" version="1.1" xmlns="http://www.w3.org/2000/svg" xmlns:xlink="http://www.w3.org/1999/xlink" xml:space="preserve" xmlns:serif="http://www.serif.com/" style="fill-rule:evenodd;clip-rule:evenodd;stroke-linecap:round;stroke-linejoin:round;stroke-miterlimit:1.5;"><rect id="ok-Slight-snow-showers" serif:id="ok Slight snow showers" x="0" y="0" width="1333.33" height="1333.33" style="fill:none;"/><path d="M404.562,931.437c-81.842,-0 -148.288,-66.446 -148.288,-148.289c-0,-72.118 51.593,-132.281 119.852,-145.56c14.394,-89.923 92.403,-158.721 186.354,-158.721c74.079,-0 138.246,42.771 169.133,104.945c15.412,-4.382 31.677,-6.728 48.486,-6.728c97.786,0 177.176,79.39 177.176,177.176c0,97.787 -79.39,177.177 -177.176,177.177l-375.537,-0Z" style="fill:none;stroke:#fff;stroke-width:83.33px;"/><g><path d="M583.279,390.588l-84.465,-84.465" style="fill:none;stroke:#fff;stroke-width:83.33px;"/><path d="M956.645,544.615l120.415,-0" style="fill:none;stroke:#fff;stroke-width:83.33px;"/><path d="M892.025,390.588l84.465,-84.465" style="fill:none;stroke:#fff;stroke-width:83.33px;"/><path d="M737.998,325.968l0,-120.414" style="fill:none;stroke:#fff;stroke-width:83.33px;"/><path d="M660.277,464.198c20.131,-19.461 47.538,-31.442 77.721,-31.442c61.737,0 111.859,50.123 111.859,111.859" style="fill:none;stroke:#fff;stroke-width:83.33px;"/></g><g><path d="M611.111,1051.54l0,105.983" style="fill:none;stroke:#fff;stroke-width:36.84px;"/><path d="M657.003,1078.03l-91.784,52.991" style="fill:none;stroke:#fff;stroke-width:36.84px;"/><path d="M657.003,1131.02l-91.784,-52.991" style="fill:none;stroke:#fff;stroke-width:36.84px;"/></g><g><path d="M348.345,1051.54l-0,105.983" style="fill:none;stroke:#fff;stroke-width:36.84px;"/><path d="M394.237,1078.03l-91.784,52.991" style="fill:none;stroke:#fff;stroke-width:36.84px;"/><path d="M394.237,1131.02l-91.784,-52.991" style="fill:none;stroke:#fff;stroke-width:36.84px;"/></g><g><path d="M873.877,1051.54l0,105.983" style="fill:none;stroke:#fff;stroke-width:36.84px;"/><path d="M919.769,1078.03l-91.784,52.991" style="fill:none;stroke:#fff;stroke-width:36.84px;"/><path d="M919.769,1131.02l-91.784,-52.991" style="fill:none;stroke:#fff;stroke-width:36.84px;"/></g></svg>