<?xml version="1.0" encoding="UTF-8" standalone="no"?><!DOCTYPE svg PUBLIC "-//W3C//DTD SVG 1.1//EN" "http://www.w3.org/Graphics/SVG/1.1/DTD/svg11.dtd"><svg width="100%" height="100%" viewBox="0 0 1334 1334" version="1.1" xmlns="http://www.w3.org/2000/svg" xmlns:xlink="http://www.w3.org/1999/xlink" xml:space="preserve" xmlns:serif="http://www.serif.com/" style="fill-rule:evenodd;clip-rule:evenodd;stroke-linecap:round;stroke-linejoin:round;stroke-miterlimit:1.5;"><rect id="Thunderstorm-" serif:id="Thunderstorm " x="-0" y="0" width="1333.33" height="1333.33" style="fill:none;"/><path d="M571.387,833.333l-181.4,0c-111.983,0 -202.899,-90.916 -202.899,-202.898c-0,-98.677 70.594,-180.996 163.991,-199.166c19.693,-123.037 126.431,-217.172 254.982,-217.172c101.358,-0 189.156,58.523 231.418,143.593c21.088,-5.996 43.343,-9.206 66.342,-9.206c133.798,0 242.424,108.627 242.424,242.425c0,133.798 -108.626,242.424 -242.424,242.424c-29.518,0 -69.179,0 -140.252,0" style="fill:none;stroke:#fff;stroke-width:83.33px;"/><path d="M575.379,1241.67l48.232,-245.018l-96.97,-0l91.415,-238.316l154.292,0l-70.707,171.23l105.051,-0l-231.313,312.104Z" style="fill:none;stroke:#fff;stroke-width:55.56px;"/></svg>