<?xml version="1.0" encoding="UTF-8" standalone="no"?><!DOCTYPE svg PUBLIC "-//W3C//DTD SVG 1.1//EN" "http://www.w3.org/Graphics/SVG/1.1/DTD/svg11.dtd"><svg width="100%" height="100%" viewBox="0 0 1334 1334" version="1.1" xmlns="http://www.w3.org/2000/svg" xmlns:xlink="http://www.w3.org/1999/xlink" xml:space="preserve" xmlns:serif="http://www.serif.com/" style="fill-rule:evenodd;clip-rule:evenodd;stroke-linecap:round;stroke-linejoin:round;stroke-miterlimit:1.5;"><rect id="Thunderstorm-with-heavy-hail" serif:id="Thunderstorm with heavy hail" x="-0" y="0" width="1333.33" height="1333.33" style="fill:none;"/><path d="M575.379,1241.67l48.232,-245.018l-96.97,-0l91.415,-238.316l154.292,0l-70.707,171.23l105.051,-0l-231.313,312.104Z" style="fill:none;stroke:#fff;stroke-width:55.56px;"/><path d="M571.387,833.333l-181.4,0c-111.983,0 -202.899,-90.916 -202.899,-202.898c-0,-98.677 70.594,-180.996 163.991,-199.166c19.693,-123.037 126.431,-217.172 254.982,-217.172c101.358,-0 189.156,58.523 231.418,143.593c21.088,-5.996 43.343,-9.206 66.342,-9.206c133.798,0 242.424,108.627 242.424,242.425c0,133.798 -108.626,242.424 -242.424,242.424c-29.518,0 -69.179,0 -140.252,0" style="fill:none;stroke:#fff;stroke-width:83.33px;"/><g><path d="M870.775,523.715l-0,105.983" style="fill:none;stroke:#fff;stroke-width:36.84px;"/><path d="M916.667,550.211l-91.784,52.991" style="fill:none;stroke:#fff;stroke-width:36.84px;"/><path d="M916.667,603.202l-91.784,-52.991" style="fill:none;stroke:#fff;stroke-width:36.84px;"/></g><g><path d="M962.559,990.382l-0,105.983" style="fill:none;stroke:#fff;stroke-width:36.84px;"/><path d="M1008.45,1016.88l-91.783,52.991" style="fill:none;stroke:#fff;stroke-width:36.84px;"/><path d="M1008.45,1069.87l-91.783,-52.991" style="fill:none;stroke:#fff;stroke-width:36.84px;"/></g><g><path d="M359.664,1043.37l-0,105.983" style="fill:none;stroke:#fff;stroke-width:36.84px;"/><path d="M405.556,1069.87l-91.784,52.991" style="fill:none;stroke:#fff;stroke-width:36.84px;"/><path d="M405.556,1122.86l-91.784,-52.991" style="fill:none;stroke:#fff;stroke-width:36.84px;"/></g><g><path d="M465.219,566.239l0,105.983" style="fill:none;stroke:#fff;stroke-width:36.84px;"/><path d="M511.111,592.735l-91.784,52.992" style="fill:none;stroke:#fff;stroke-width:36.84px;"/><path d="M511.111,645.727l-91.784,-52.992" style="fill:none;stroke:#fff;stroke-width:36.84px;"/></g><g><path d="M598.553,382.906l-0,105.983" style="fill:none;stroke:#fff;stroke-width:36.84px;"/><path d="M644.444,409.402l-91.783,52.991" style="fill:none;stroke:#fff;stroke-width:36.84px;"/><path d="M644.444,462.393l-91.783,-52.991" style="fill:none;stroke:#fff;stroke-width:36.84px;"/></g></svg>