<?xml version="1.0" encoding="UTF-8" standalone="no"?><!DOCTYPE svg PUBLIC "-//W3C//DTD SVG 1.1//EN" "http://www.w3.org/Graphics/SVG/1.1/DTD/svg11.dtd"><svg width="100%" height="100%" viewBox="0 0 1000 1000" version="1.1" xmlns="http://www.w3.org/2000/svg" xmlns:xlink="http://www.w3.org/1999/xlink" xml:space="preserve" xmlns:serif="http://www.serif.com/" style="fill-rule:evenodd;clip-rule:evenodd;stroke-linecap:round;stroke-linejoin:round;stroke-miterlimit:1.5;"><rect id="ok-Violent-rain-showers" serif:id="ok Violent rain showers" x="0" y="0" width="1000" height="1000" style="fill:none;"/><path d="M305.07,892.517l36.499,-74.418" style="fill:none;stroke:#fff;stroke-width:41.67px;"/><path d="M372.81,754.401l36.499,-74.419" style="fill:none;stroke:#fff;stroke-width:41.67px;"/><path d="M426.133,832.58l36.499,-74.419" style="fill:none;stroke:#fff;stroke-width:41.67px;"/><path d="M609.466,832.58l36.499,-74.419" style="fill:none;stroke:#fff;stroke-width:41.67px;"/><path d="M242.8,832.58l36.499,-74.419" style="fill:none;stroke:#fff;stroke-width:41.67px;"/><path d="M488.403,892.517l36.499,-74.418" style="fill:none;stroke:#fff;stroke-width:41.67px;"/><path d="M556.143,754.401l36.499,-74.419" style="fill:none;stroke:#fff;stroke-width:41.67px;"/><path d="M321.476,648.577c-55.745,0 -101.002,-45.257 -101.002,-101.002c-0,-49.121 35.141,-90.099 81.634,-99.143c9.803,-61.248 62.937,-108.108 126.929,-108.108c50.456,-0 94.161,29.132 115.199,71.48c10.497,-2.985 21.576,-4.583 33.025,-4.583c66.604,0 120.678,54.074 120.678,120.678c-0,66.604 -54.074,120.678 -120.678,120.678l-255.785,0Z" style="fill:none;stroke:#fff;stroke-width:62.5px;"/><g><path d="M443.203,280.196l-57.531,-57.531" style="fill:none;stroke:#fff;stroke-width:62.5px;"/><path d="M697.51,385.106l82.016,0" style="fill:none;stroke:#fff;stroke-width:62.5px;"/><path d="M653.496,280.196l57.53,-57.531" style="fill:none;stroke:#fff;stroke-width:62.5px;"/><path d="M548.585,236.182l0,-82.017" style="fill:none;stroke:#fff;stroke-width:62.5px;"/><path d="M495.648,330.333c13.711,-13.256 32.379,-21.416 52.937,-21.416c42.05,0 76.189,34.139 76.189,76.189" style="fill:none;stroke:#fff;stroke-width:62.5px;"/></g></svg>