<?xml version="1.0" encoding="UTF-8" standalone="no"?><!DOCTYPE svg PUBLIC "-//W3C//DTD SVG 1.1//EN" "http://www.w3.org/Graphics/SVG/1.1/DTD/svg11.dtd"><svg width="100%" height="100%" viewBox="0 0 1334 1334" version="1.1" xmlns="http://www.w3.org/2000/svg" xmlns:xlink="http://www.w3.org/1999/xlink" xml:space="preserve" xmlns:serif="http://www.serif.com/" style="fill-rule:evenodd;clip-rule:evenodd;stroke-linecap:round;stroke-linejoin:round;stroke-miterlimit:1.5;"><rect id="_82:-Violent-rain-showers" serif:id="82: Violent rain showers" x="0" y="0" width="1333.33" height="1333.33" style="fill:none;"/><path d="M428.635,864.77c-74.327,-0 -134.67,-60.344 -134.67,-134.67c-0,-65.494 46.855,-120.132 108.845,-132.191c13.071,-81.664 83.916,-144.144 169.239,-144.144c67.275,0 125.549,38.843 153.599,95.307c13.996,-3.98 28.768,-6.11 44.033,-6.11c88.805,-0 160.904,72.099 160.904,160.904c0,88.805 -72.099,160.904 -160.904,160.904l-341.046,-0Z" style="fill:none;stroke:#fff;stroke-width:83.33px;"/><g><path d="M590.937,373.594l-76.707,-76.707" style="fill:none;stroke:#fff;stroke-width:83.33px;"/><path d="M930.013,513.475l109.355,-0" style="fill:none;stroke:#fff;stroke-width:83.33px;"/><path d="M871.328,373.594l76.707,-76.707" style="fill:none;stroke:#fff;stroke-width:83.33px;"/><path d="M731.447,314.909l0,-109.355" style="fill:none;stroke:#fff;stroke-width:83.33px;"/><path d="M660.864,440.444c18.282,-17.674 43.172,-28.554 70.583,-28.554c56.067,-0 101.585,45.518 101.585,101.585" style="fill:none;stroke:#fff;stroke-width:83.33px;"/></g><path d="M292.477,1050.98l44.043,-76.284" style="fill:none;stroke:#fff;stroke-width:83.33px;"/><path d="M474.519,1050.98l44.043,-76.284" style="fill:none;stroke:#fff;stroke-width:83.33px;"/><path d="M656.562,1050.98l44.042,-76.284" style="fill:none;stroke:#fff;stroke-width:83.33px;"/><path d="M838.604,1050.98l44.042,-76.284" style="fill:none;stroke:#fff;stroke-width:83.33px;"/><path d="M339.456,1203.66l44.042,-76.284" style="fill:none;stroke:#fff;stroke-width:83.33px;"/><path d="M521.498,1203.66l44.042,-76.284" style="fill:none;stroke:#fff;stroke-width:83.33px;"/><path d="M703.54,1203.66l44.043,-76.284" style="fill:none;stroke:#fff;stroke-width:83.33px;"/><path d="M885.582,1203.66l44.043,-76.284" style="fill:none;stroke:#fff;stroke-width:83.33px;"/></svg>